<mxfile host="app.diagrams.net" modified="2021-07-28T08:02:11.586Z" agent="5.0 (Windows NT 10.0; Win64; x64) AppleWebKit/537.36 (KHTML, like Gecko) Chrome/92.0.4515.107 Safari/537.36 Edg/92.0.902.55" etag="9s0HO8NJOc_nkXcNLtXB" version="14.9.2" type="github">
  <diagram id="7C_1mKtZpM7-MC3SUt2j" name="Page-1">
    <mxGraphModel dx="1422" dy="914" grid="1" gridSize="10" guides="1" tooltips="1" connect="1" arrows="1" fold="1" page="1" pageScale="1" pageWidth="827" pageHeight="1169" math="0" shadow="0">
      <root>
        <mxCell id="0" />
        <mxCell id="1" parent="0" />
        <mxCell id="_AsPfFJiuaYgu935RAGV-4" value="" style="edgeStyle=orthogonalEdgeStyle;rounded=0;orthogonalLoop=1;jettySize=auto;html=1;shape=flexArrow;" parent="1" source="_AsPfFJiuaYgu935RAGV-1" target="_AsPfFJiuaYgu935RAGV-3" edge="1">
          <mxGeometry relative="1" as="geometry" />
        </mxCell>
        <mxCell id="_AsPfFJiuaYgu935RAGV-6" style="edgeStyle=orthogonalEdgeStyle;rounded=0;orthogonalLoop=1;jettySize=auto;html=1;exitX=0.5;exitY=1;exitDx=0;exitDy=0;exitPerimeter=0;entryX=0.5;entryY=0;entryDx=0;entryDy=0;" parent="1" source="_AsPfFJiuaYgu935RAGV-1" target="_AsPfFJiuaYgu935RAGV-5" edge="1">
          <mxGeometry relative="1" as="geometry" />
        </mxCell>
        <mxCell id="_AsPfFJiuaYgu935RAGV-1" value="QTransitiveK.ClickNonClick.ss" style="shape=cylinder3;whiteSpace=wrap;html=1;boundedLbl=1;backgroundOutline=1;size=15;" parent="1" vertex="1">
          <mxGeometry x="351" y="130" width="220" height="50" as="geometry" />
        </mxCell>
        <mxCell id="_AsPfFJiuaYgu935RAGV-3" value="" style="shape=image;verticalLabelPosition=bottom;labelBackgroundColor=#ffffff;verticalAlign=top;aspect=fixed;imageAspect=0;image=data:image/png,iVBORw0KGgoAAAANSUhEUgAAAYwAAAAuCAYAAAA7mi4bAAAPTklEQVR4Ae1dy5HjOAx1RA7AYTiIvjsTBeJzZzBVDmBvfXQg3AIIkAAJSlSbbrPd2KopyRaJz8MDQFKenUPw/xwBR8ARcAQcgQ4EDh1jfIgj4Ag4Ao6AIxAO9/s9+B/HYAYO/Pv3L8CfGWxxG+bOiVm5Mqtdo/jsDcMb5jQF+t2TbVTSupw7LixmXFy8O4e9YXjD8IbhHJiGA73NcNbCPKtdvbhujfOG4cVimmLx7sm2lYz+vP8YbFauzGrXKG55w/CG4Q3DOTANB3oL26yFeVa7enHdGucNw4vFNMXi3ZNtKxn9ue8wZucANYxruByP4Xi8hKssoNdL/Z18/sz72xLOx3NYbkCiW7guS7iN0Kfk1gS9LZdwRiwAj3O4LLdpCursZHrUPt0wbmE5QwyMP5frE2OyxrW1ZzWX2njEfLtcaQ5y8hjOM3JtI1/aPu7BY/9YzZWV+cr+jvip8StyG7Wo267G/Ffh2au3aBgFaWdpGJRQKcEeAXuFENcLNYnrLdxut3C7UvN4aoHaT8re4P62cVWyQQwwDrR44Lg8Ev+tuYprt3C9nHMhV88eiZtsGNQYZ+XYSr68kl8VV1pxlfb3xE+Ob8lc+b7brhUZr8R1S7dqGJcL7Ch4VX8P91kaxkhwW4RokQkxEJiMtMVlqZ1CM9laMXs6frGYj1/554ZxW86v28X34Pcy7NcbcpMrpU977d87vtDXbVcxb6tQz/JcN4zrPeAqm1c7RcNIK248JhDHNVRULxcmPyfENVzoWOG8XPOK/Qg7GT5WgKSEefHo4XyhoycZOHEfE6w4piB7lX3nfLyWj5nOAZpiPurKpGwnLvvCDVQ0j6KZmPoLbC6wi2F87/eAes+Djtt+KQk5GZrJJuLPY+NiBuLJnFvj0TFcFtilMMcE93A+fQ9HQkkXrfz5SAxiVD4TccS8oTiaPFCxIU6RTeXO2Zqv8lLwZpF8QvuOgeUht6zckEetBT/hSLonX1IclF85n5793OTKbUn15gj5D8fZKWbFPdi9Nf4e4xTz9RaWkiuG75VdFr58cgHcwjpFXNvDJ461xeuiLnGuxOP9u6rDUX9/3KqGEQEm0qFiKrzJwHimD6SGIo/kpPu8EstAw3uHVOQvV3wPET9z4YVjBzKYdcDZ7lqgKVDxCEnaRyS5Q3CpMCeZYDecYUKBYd0ZqHbhjr6gb2uBQD2G/hIb/MzNLBIl45bteXbCzSi/SjZOSMkF/q7E9b7Go8iFzMUY/xhzjoXkIPOjiI+0Q8WRGkDircEDthuvlB9YMIrFwiqP2NZsl+RtzCtekOQxKafpHclq7qJ+yOv1fHk1f2qulDXnEt9/ypjJe9EMIi/K8RG/Iy8CoG6IRWjL/8qukqdd8e3gE8UJmlnJ67JBqM8t/Yqf7TpUNwwu8ACUSApJzAiWICSO4yQDZcJhMEQFqvwMRfwSzmKXgU1IzpH35FhMjqwzJQuvCCkZsUFQ0NFuQxZ8H+dzQkrAhC+ln+JzS3/EMNupsEFbLJ1S/9+5r5KNSWzFTGDPfGzzKK+6U/GE4o4yjuGMq1H6cYPSJThe8bjkRYxjkwfsC155brzKBUN7Ps/h/CHeCHthAYU7KeQ7jI+8Q5kyB2BBdab3lQWO1VghP+I8Bx8rrqAfMpdoASHtl/cb489wMiIxs7iiYhpxse3K+d8VX2Fbczz6ssbrrFM2jKY8wxcr3mbD4KIWi7hIBAngCul4Pm+N1xpGJCivyMqkIKdloMGxEiwu+Mq+GMAoX6ziSlkMlCETAcPgkR3yHuaJz5UelivGcABwLKwMYNUitqH8/K9eq2RjDK2YFbhG/Fs8aiQWyL/Ri208JpVHUsAfUVhxrPzlXj6+lXGMdgi+sQ/qKniOfmT71uazHr5GnkQbL1eQCblKjQLkUj7UMoVfJo7Cfgt75ctrGkjFFfRDNgyyS9ov7zfGx6NOUXQx/gVXDBxsu7KcOhYZPz52lPFtjkdfMm9UTSxi2lWnDF+sOtRoGFwM4WyXgpAMlEdSjUK6Y4eBINFWT22VZXDlPcmWqzJ0DEECANm+JSxiFZm22PRLKD7Pk6DEI64zypC/kkq6CIP4GcgD+EgMWvozYVAf+QOrmNRUOwMm7X23+yrZGBMVf0qwIinWeSRwphhq3MsjTI4XFVZu6qUdZIOKY4uH7AteRcO4U+PhPFub3+BNLCrncCY7AQtY7JW8zbkhftxS4Mi7rp58eSX/Kq5QXPFdKSwgr9f1dxgd42N+l01IcEXFNPKysmsVX7CT6hTIorFdfCL7E4/l5+QbHSv21CnDFyu+7YZBq6vUMDAIxd9RoOLMjuYirBNibYcBz/KL8QX/PgiCgE5T4qb7mMD8gjxdKVHyy7r4MontgZ9GxrHwol6vEjUodDwmj7XgBSH7CcmN70Bioyh/VWbqLwmDgWE/SjLm1Ya26298XyUbkzjFX+BQ4rrKI7thYKHlWOOxFO9euWHwUSUdT1R2RJ7zSp5jZvKAfcGrlR/87kG+dNY85h2PzEnUiVhkH9mvVEx25S40sN58EfFQ/j3/e5Mr5cvkrZfeW+O5Bp4XkfcxJvhC3fC5sqvkKZ6GiDp6pncnghddfEIu5pirHcZ36pThC/NZXqlhPD/AUulvuufkg9UbvFwaY7s4Ehgmc5Rtr5NTJZtjU/DNecP5NytXZrWLcXv06g3jBUUJjt6sn/Y+GszfPv/dk+3R+Dhv8mJmVq7Matej3OP53jB+uGHwew95XMDB+OvXd0+2R+LrvMnNAnCclSuz2vUI9+Rcbxg/3DAk+H7/O4qAx0nHaQY8Zi3Ms9o1KmYHdtCv8Z8HdRwcB+eAc8A5YHPAGwb9O9JOEJsgjovj4hxwDjAHDsH/cwQmQYBJOYk5bsbECMzKlVntGhHK//77L3jDGIGkyxiCwDsn2xCAXEhCYFauzGpXAu6BG28YD4DnU8cj8M7JNh6tvy1xVq7MatcItnjDGIGiyxiGwDsn2zCQXBAiMCtXZrVrBG28YYxA0WUMQ+Cdk20YSC4IEZiVK7PaNYI23jBGoOgyhiHwzsk2DCQXhAjMypVZ7RpBm6phfH4cwuFAf05L+NrU8hWWU98ckH1atiWyyr3j5bzD4SN88hd//Pq1nMLh43egYSXbXh7sHc/0gHnOG0YjhNl5Y3ElW//cu8gVu06+0q5HvV7zC2SrhoEESU2CGsFqoYljepvA3kTeO/5RsL41//MjHBJm35Lw9EmzJ74EwEq2vTzYO17q/7F7583DUFtceVhoh4CtOvkquzpMXx2y5RdMFg3jM3wcDkH1h68lnA6n0NoU7C1EexN57/hVNJ710BN/KLJWsu3lwd7xQx3oFea86UWqOc7iSnPwsAfbdfI1dj3q4LZfoCE3DGwO5TGOISTZFXcXqsGkZ/aNTmSQXTSjwgYej43JPCZjG6KdfJzA86QVSoZsjKizdaTG8uM1HtVlm0FPOr4D+1bA0PoLGcU8HCt2La250j95r+w6LeFTHUmxTxozmK/11P4wrmqcsBNtgELIsSrjK41s3FvJxnrjFOcN4IAx/uO8sbjSoNW4r4salTmZF9svsetRDzv8AhW5YZgrHi4uhjWo4BSWT9iFcOHMhdCYgSTPx1d9iQ/FJ8+hwp0SJX4+nT7ULkgXGC6Eohl+LWGhI/2vRc615R9E4cNElUXSxE17XzaAgEWV7Knma8xX52o1+Mm0TzUzG7PYBARGocSCitRaPJgT/Jrqc1FxMcytvrKSTcfTeYPUdd6k/1ttRaJnflHhDsp0zlocfqZJQ2R3+AV6uhpGLtjCNCwOB3V+XxcdMZ5WRVlWZ+Kn5kCyVFGi4lecmdUFJnd/bZHxSQFnyEf9orCq8Ya8YPipCFY8V/KLZyhek1NrtMaXq1HDJ9NG3HKEk/jxADajtXgo27VlvZ+sZKvjWSxMCr2bdhL+mYvRulqP8ybvmufjjcWVXp59e5yZ7xqbl9j1bYdoYodfMLKrYZQ1AlVgkhaJ20hE9qVOyGK+kfhlUgdV3OziqfQAEKLosS3yGhsd75JkEzTkl36bQAvpqF/ITruxXIykvWgLA94xV2iCrZQq8PxMyVTNikY0MdINSNrJsq14wK6QXcjj+u6sZNN6tU0otfBbj2e9cp4R13JB08SE5fHOVcQ27TwN+c6bDBze1fHYyxuLK4WS8R+BFynOLF7H+yV2sSnfvXb4BaJ1w6gKKwS1kfxlAqChEbi6yEcvdCJLwpCXP5740T9FAAWcJkJ0EYqyaHRqPPkhL/C8wlUOwEpFJCz09cyVohrjf65hkDEYRyikYicm7Vy5t5LNedMALHHvb/LG4koDqXFfmzmm6+RL7HrUww6/QEVuGGrlTtqLAq5tKkiKD63v8qzNxC+MhvF5S0xy1Bhbn9JjNjaSZfiHxTWtIAz5pTywJ43Pvqa7cnx6IG+oeeL7IFFku+YKOY3xGscOn1gkysv2aDk0SMWDJ8I16mktHuRIeW8lm4qnxdPChm07DQzKHUYDS7S1wAW9hR8WJB4Y8kt5zpvGgqKfNxZXJJeec7+90H2NXY96u+0XaBANg866C9KvJTwWV7GK1MW2dkAnfiRGbgixS8tVKSa+2uHEMdkmIzHLxKfPUi4c3eBL7zKJ8fM3jqQEBrXX/LI4F14sph/6L0UiNqf6L9hFDNbnSp04PsWQdi/GS+/yyMjUc5I/OGA/5I6ziMfnhziKsmMjbbXurWRDbNJ7KucN/6YA8ENs/ihvLK5YnBr9nc6xyMdck8JrXsYPcHLLL1ChGgZ8gZP4nL2sKoZRsWnwOa4sbPVgJHdKfNSGR17xZ5gf4bNYucXxn/pvkiub7KJU6yn8EkdKyn4otGrlZ8gvmwytpNEHZZv2X+GqfmlE4yq5ef7m3Dw0rewjpnGHhj4m2wyfkgkn8ZNY3SxgyGY8uOESf2QSKRNXPlhFoI4nLy7o2Mt5Y/4a7d15Y3FlhVpDHylsU25FFa+061En1/wC2VXDeFShz/8mAqpRfVPGk6fVhXu8wt+cbOPR6JD4h3kzK1dmtauDTZtDvGFsQvQTA+pt7U9o3avDG8ZexJ49/m/zZtbCPKtdI9joDWMEig/ISFvAYlv7gMinTfWG8TRodwt23sz7rsAbxm46+wRH4HsIvHOyfQ8Rn9VCYFauzGpXC8c93/sOYw9aPvbpCLxzsj0dvD+mYFauzGrXCHp4wxiBossYhsA7J9swkFwQIjArV2a1awRtoGH8D/3cxwk7a0oHAAAAAElFTkSuQmCC;" parent="1" vertex="1">
          <mxGeometry x="263" y="30" width="396" height="46" as="geometry" />
        </mxCell>
        <mxCell id="BNKGKomZE4ycVB4teLV4-9" value="" style="edgeStyle=orthogonalEdgeStyle;rounded=0;orthogonalLoop=1;jettySize=auto;html=1;" edge="1" parent="1" source="_AsPfFJiuaYgu935RAGV-5" target="BNKGKomZE4ycVB4teLV4-8">
          <mxGeometry relative="1" as="geometry" />
        </mxCell>
        <mxCell id="_AsPfFJiuaYgu935RAGV-5" value="IF(clicks &amp;gt; 0, 1, 0)&amp;nbsp;" style="rhombus;whiteSpace=wrap;html=1;" parent="1" vertex="1">
          <mxGeometry x="396" y="220" width="130" height="60" as="geometry" />
        </mxCell>
        <mxCell id="_AsPfFJiuaYgu935RAGV-21" value="" style="edgeStyle=orthogonalEdgeStyle;rounded=0;orthogonalLoop=1;jettySize=auto;html=1;exitX=0;exitY=0.5;exitDx=0;exitDy=0;" parent="1" source="BNKGKomZE4ycVB4teLV4-35" target="_AsPfFJiuaYgu935RAGV-18" edge="1">
          <mxGeometry relative="1" as="geometry">
            <mxPoint x="365" y="635" as="sourcePoint" />
          </mxGeometry>
        </mxCell>
        <mxCell id="_AsPfFJiuaYgu935RAGV-17" value="" style="shape=image;verticalLabelPosition=bottom;labelBackgroundColor=#ffffff;verticalAlign=top;aspect=fixed;imageAspect=0;image=data:image/png,iVBORw0KGgoAAAANSUhEUgAAAKMAAAA5CAYAAABakZulAAAG7klEQVR4Ae2cTY6rMAyA50QcBqnqOdix6CHYdtMTcIHuuhmJA4zU7UicoWs/2YkTBwK08woE6koVP0mT2P78E9qZr7ZtQd9p6+D7+xvwvVc7/fz8AL6/9irgnuTaO4xgXwrjBjKDwrgBI+0p+o3JojAqjMnUaAqjwqgwLsRApGasocgyKGq7s2wqyLMM8qpJxiguldHacqgavwtuqoLWm2UZZFkOFcuxkELd2maYbygydmUuUrTVE/qYgLGBKs8gK+r0QEThOjDWRU4AFlUNTdNAXeUzOlEDON+SThqDsS6M0xV1QzI3tXXGSZstv/4pRx2FsanQuAXUT1A9NdEs7RJGG8FdRKc1N1DXc0V046irwhiVuYW2LkxWEBmjr//l199fg89o2MYv8WjHpunKpOfQuC04z8M0mBtQyTuFJxLEeQUVei3f7yiO+ti2YMwsB5dmrFILinhmLp+ScigKjAImTfOczYDjTM3hUr00JK/Z6gJTf05rthmDSgHUQwVD804Z4JX2bmQcDhb9UqvADMc2a9ZZ/5SsgzCahXeUTMYpoCaPazxsZECOoN7jJCBGcQyn72NSbeYARGhwbnICe+6iD8NB0c6kYaoLmxbkXD2h+XO2lurPIerOCIzoUAibkYH7ChkGHKC3jv/sF4Ux6ggGRqM3c+5lKGyNvfz6p/QxCGNRS4FMOHVAcUQgT0NghScysKh4OjfGw+hZYIQh5WH/oYgmlCTBYBik8sX4YzD224bnCFIcQ8yboOBajPGfkE0ZidujMEbLKGEP0iEHCrQj1pbmiPsB5+gLycCyxI4jMHLt4XfWfaP6nE9tGEGwzuTU3BqDGbBRIRZCVJCFqj+mMPILMBqI/FqlsK/MsSUYXVZhZ2GgpN56MLLNhJ75cysfx2FsWzC7NetZJBga3GwKmrryj05slMrzEAgDQm5rLTNenotdqIs2PKYovqVSUVHB/LgbtI9vhKdj2pY7S6o/x+awbSZCdMZ0n7MGDK6tMZ3jsZHnO3YjIzoc60DKHDyKc/LZUqOufZmFkXHB9csAETufhJG9j6Od30CYDYwr/G0U7O2+HUDGSAQn14TWE3ubC94Bd2Ek5eMO3z7OoI0F13A4vnlcYdotqDZqDM6BY9JTAztmIZwhgI/LDu9sLAtH+ZiC33kvBiPJHDxbtXKwDq0TI6BmH8A1P9fAy23ApnQRgfGvnp1e2J8SfmvtcRj79mInwai3xC7/XXp8G4wm8sgo1VfSuxb9qeM8C+NW9fMWGH3dogDOCYLCuPIOa07jbm3sj4GRBdWj+Wm/6mF5Pbg0rcpfXvmq81Dn7m9gmEo9pqsBhjfdFf59ZQgiv774RI/pakBhTNc2H7cyhfHjTJ6uwApjurbZ9cpuJ/v1XXaEy68Rdesw/l6O9qtclO0EN2FBrRmFMlI6RRCPTKBY2NZhRLlOkkAhm8IolJHO6Q1OxwvYYBgsa/sw+igfCAZA/9aE7+lumjWx9vF2gux0ghP/ykaAuW0Yf+Fy5NKjH/k1Mq4NXmx+hFHUiTJlbxtGKewNTkJGbFEYpX5SOafIKAorcb0fGAGkkymMqcDXXYeAj5rE9d5glJsZjYxdEJK4linM1FlstN3A+HuBo6bpJGibXgQZyxb7TCIA/aNQBHKbL3Qyv4ERYpE4Ghk3ZtXdRMaI3hXGiFJSvqUwpmydD1ubwvhhBk9ZXIUxZet82No+BsbH4wH6TlsHDONe7YSbGHx/7VXAPcm1dxg50SmMG8gMCuMGjLSn6Dcmi8KoMCZTSyuMCuOiMN7PB/HTfP76rITr4+G+DhyLnk+3XUvIMjMufmZsXh6T+hzOcLdMXEteXwaH893ricY2bfL+YH87ntaMiTsbAsAGfU9kvMP5kEFWllAKGBk4Psp5zb0rlPjdMsN4P8P5yk8fsO0A5zteD5wP9ucxHsyi7qbZCGkd0bA+er0HRjZ+OHYod78N4SzPZzgwjIETI+AWxnvYB6Nh6aDluUV/MQ7TqLtpoZTQMKzAFY7X0kVFXNNiMHbmfSBg5RXoGIVRwitBk/el/uL3FcYUIaQ1SaMaQy4DY3decd2Jeuy0GP24lKB72M/+XKwfFR/Q629toDCmCiNHI7G+RWDszBvUjj0YEdQIiCJ6hmk60l/IpzAKZbCnp3CkGq1Tay0BYzgvplO/Y3b/K51gExFT6DCAF+/jzhpT/CPeX+paYRSKlIpZ9zxuuPlhjM/rdCEjo4NM1oIWvk5kpBQ+1F/oX2EUynBKX/1evMCfH8b4vE4vAkaMgC5S2ujJdWPQRlEx/hyT+/P4CuPq4HUiy8h63gvj8/MyLHMfFcYR48+t/FfHVxg3ZKxXjbu1/gqjwui/c11ZF58C4z+MO48wLYr2TQAAAABJRU5ErkJggg==;" parent="1" vertex="1">
          <mxGeometry x="98.51" y="797.5" width="142.98" height="50" as="geometry" />
        </mxCell>
        <mxCell id="_AsPfFJiuaYgu935RAGV-22" value="" style="edgeStyle=orthogonalEdgeStyle;rounded=0;orthogonalLoop=1;jettySize=auto;html=1;" parent="1" source="_AsPfFJiuaYgu935RAGV-18" target="_AsPfFJiuaYgu935RAGV-19" edge="1">
          <mxGeometry relative="1" as="geometry" />
        </mxCell>
        <mxCell id="_AsPfFJiuaYgu935RAGV-18" value="keyword_count_distribution" style="rounded=0;whiteSpace=wrap;html=1;" parent="1" vertex="1">
          <mxGeometry x="75" y="610" width="190" height="50" as="geometry" />
        </mxCell>
        <mxCell id="_AsPfFJiuaYgu935RAGV-20" value="" style="edgeStyle=orthogonalEdgeStyle;rounded=0;orthogonalLoop=1;jettySize=auto;html=1;shape=flexArrow;" parent="1" source="_AsPfFJiuaYgu935RAGV-19" target="_AsPfFJiuaYgu935RAGV-17" edge="1">
          <mxGeometry relative="1" as="geometry" />
        </mxCell>
        <mxCell id="_AsPfFJiuaYgu935RAGV-19" value="KeywordCount.Distribution.tsv&quot;" style="shape=cylinder3;whiteSpace=wrap;html=1;boundedLbl=1;backgroundOutline=1;size=15;" parent="1" vertex="1">
          <mxGeometry x="60" y="712.5" width="220" height="50" as="geometry" />
        </mxCell>
        <mxCell id="BNKGKomZE4ycVB4teLV4-40" value="" style="edgeStyle=orthogonalEdgeStyle;rounded=0;orthogonalLoop=1;jettySize=auto;html=1;" edge="1" parent="1" source="_AsPfFJiuaYgu935RAGV-23" target="BNKGKomZE4ycVB4teLV4-39">
          <mxGeometry relative="1" as="geometry" />
        </mxCell>
        <mxCell id="_AsPfFJiuaYgu935RAGV-23" value="add ID" style="rounded=0;whiteSpace=wrap;html=1;" parent="1" vertex="1">
          <mxGeometry x="401" y="685" width="120" height="30" as="geometry" />
        </mxCell>
        <mxCell id="_AsPfFJiuaYgu935RAGV-28" value="" style="edgeStyle=orthogonalEdgeStyle;rounded=0;orthogonalLoop=1;jettySize=auto;html=1;shape=flexArrow;" parent="1" source="_AsPfFJiuaYgu935RAGV-25" target="_AsPfFJiuaYgu935RAGV-26" edge="1">
          <mxGeometry relative="1" as="geometry" />
        </mxCell>
        <mxCell id="_AsPfFJiuaYgu935RAGV-25" value="data.WithRevenue.ss" style="shape=cylinder3;whiteSpace=wrap;html=1;boundedLbl=1;backgroundOutline=1;size=15;" parent="1" vertex="1">
          <mxGeometry x="608" y="757.5" width="150" height="50" as="geometry" />
        </mxCell>
        <mxCell id="_AsPfFJiuaYgu935RAGV-26" value="" style="shape=image;verticalLabelPosition=bottom;labelBackgroundColor=#ffffff;verticalAlign=top;aspect=fixed;imageAspect=0;image=data:image/png,iVBORw0KGgoAAAANSUhEUgAAAUIAAAAxCAYAAACvbKBHAAAKW0lEQVR4Ae1d25GkOgzdiAiGn46D/w6iI5gIOoj52aoOYAOYqg7EW7ItI+QH5tFgMZqquRjjx5F0dLDN3t0/JvPz79+/zJP9q4+ca3/0OuKRHrgCVyTbIBk75Sm34w9U8N+/f/8a+H2/3x//PXKuI+zROT7HmStwRbINkrGn8pLq3h+qklg+0uAj50o5Q+s+J1x7+/YKXJFsg2TsKS6i3sFVhfCAVW8qCFq3XICvkIiSbZCMPZVvKoQqfh8/8kgRb2vdFRJRsg2Ssae4p0KoQqhCeBIHJIuJZOwqhCcRPuV4rVu+HaY+u0IiSrZBMnbKIyyvWBG+zPPxMK+UqLwepu9683itI/nVnItO1us6PpT8FnFlI/dKc+36jOBcZQPpX41rTZ9UfpO6CDt5Vo2roT7LhdA6tTPDM0HujQ6/mnMlEkIK5ogrG7l3mN0E5yobSP9qzGv6zIhUhH2mfTXWk8ZZLoQloBsdfjXnth58yfgirmzk3mG+IDhX2UD6V2Ne06eU5++3/bPFgL8aw8x4Z4+zXAiZU1+PwfRdZ7quN8MA5X23xtnxn4OdM2zD2f3ribg60/WDeUIgfJth6E3XDWYYOtMNzxDM16M3XZ/Z9jceyLOJdPT8ZRF5mgE46WOb4sIzE/sHrbdcH3c/lh+pMYH7j5fjEeMY8C7H4bINL/PogaeQW53pB89LzL8nHEPhM8LhFO+xz8ojq1RsI+wpuyMsYNMYFxjXxsHnXCpOb4zBI2Evy3nMb9SE5HiZPN4mhAjyCSSAs0MI3I5CWBq/5ATbbzBPG/iXCeS2fTrTT0jrRfLtghSeZRyWIoXWJY5JPuy/KBFtzIF7PtnwhVbkQhx7+jK05SCohB/IS88jSDgQK3tcxDmGbRM5krcB/PkyLxSuMMbboDD0w9Oe07+8INq5c7ba+vV5meJ3hD1pdy4H0e/uhTWP3YknfJdwMfG22DmJXfQ+54sMLzcJISWNddZGh3PnFsenRoNx5D4Q2L8x7VsVEoO0ccFNBCLjqBQZtO54AUSfc644gehNDysOFMGQOG7lhKsr9zwTe8JhWK0MsBKx40F7l3QRL+lLlHEsakvGz9ngVjSwsBhMT1aFo2CQ5CdzZ3lP5kT/bb1G2FN20/yDcvAjfWk4USxjH1fl+CIYXzrEFwRDdrxMfl9XCEkyhKATR2GddRi8XWE1S7bJ+Fyv54ldyfdRIvpkd8ceY3LYuKa4gCIZxd6t/IYnCB8kqRdA4I4fJx6TrBYZx6K2RJRyNoAQun64ouKiPdoHK0fYbsJOJpoLk57MWfLpkmcR9jm7EQtuh5nfy9hXCmEm7ik7NwmhW4UBSL81hvOVPbfG1rmZ8W1wcZv7cmcNOPek39vA9uEBX7lZsKxDPElgJWHfMiRgKYdpXRvCGCUiSXZ77mRFDGOOHCJcgDhnYu+Ssjew/YR4w3iwMgvHJp57jvcwJjmvpmWYY8LFKU9nbfBn25Ott58bXtp2qxjG53MRW4lv9uJvhL1oN8ESfOJW7yHngh3urDXkbPC15x2992UXl6lvp35n8ydyfJsQWpLggS4cGO//5wif9sOGE1g+vjuT9M8GQsbJAbX7WGK3GzxY1iHujQofT+wHlYST9iKPjrOfiEaJOEl2H9Owgpt+OMPDdFxNRbEPSenwWmHEM0DPDxAn/FhhPxTaxQCKEV2xgZCmc6Row+thBtjmw4eSx8N+/JlsjelHSjzzzvF+4pt9YhBhT+TW+JGI5KD1n1vh4gob8yLZngof9GX3izUgk9/LhTAzEBqz5Ro5l8/1gYBiMoS3PZ9T78NX9S2x3bvvLFeq4jZuK/fGVzPePjbsI2w1eGkbydipHVj+9ULo3uzTNzg6R6/nJFmN3/dIxLNjv4cNNb76RBvJ2FP++NVC6M6Sej0brFo9tSWKWxOxhdhvtSGV0EfVScae8pEsIRSYsCmna912Ub1CIkq2QTL2VP5VCyEarlf3TxeoH9QPyoHrcGAihPTv7ceyBvs6wdZYaiyVA2kOoN7BNflX9YNSwsMjfjBIR8ylc8j2wBW4ItkGydg587m+qRByD+l9sx64QiJKtkEydk5qFULuEb0X44ErJKJkGyRj5yRXIeQe0XsxHrhCIkq2QTJ2TvJzhfD7brrubr4JqqRzbTv3vxrdvn5Ia1KsaUOaH1f8NvfuZnKw53Gs7U/6/XyZ2yIMpO88wNNaJLlyGpqZiTP8FGGDZOw0LBk7oMlJQvhjvm6d6e53c58VQkhKFMtcgta0oR45spzDXIthbf+1/QDXlr61dm1vJ0JErJngzzSH27dBMnbKsbwd0OokIUSAFJyri4gBKn4f14w/XzcTrQpr2uCUh1/BxpNXhItt3op58YSrOkRcWTXKAZ0K/GzeBsnYaWgLdkCz5oUwEj5mEBhR0yascr5gO57YZtvto6uH56P2elHI9SPO/r6P/Ufx5qLiV8MeQ5hnbv5v2N6uwG1PEioxBFt8+6o5caVjAxEwjkcebqz7/RYdg4TpVhaaFxFvV4mfrdsgGTulVckOaPfLhBC24351CYI62a4Q8ZucqUEi5/pRV9MyFR5adiIYrWjtVnRm/tuXcZq2BDeuRGswcPyd6XDOyB84Luyi736FTufg9V28iqfTrSy3LiJoVikJW7dBMnb0P1xLdsDzXyaEJIHpOZhNdLKysXmMwsQSnPajnoayFVdcFeJcpH9iHjtEoh5Wl06zSX/bmNxX9yv34WaE1TP5LhXw2DnRRn8FoLn6kr/iiRfVtC4iaEwpCVu3QTJ29D9cS3bA8+aF0IoLruJSBoEVbLscGW09QsSA31cLip0sfeY3GQNWflcSQreStWGY2Gkd6f6Tq1chLPKzdSEs5Vbz2Ak9S3ZAs/aFcJJgXMy8pTVtooSkY0EZV2B41oUrRNoO5uP3HgOI8exWcsnWuGb+WtwUcw6Dt8Ne3LhhCx/5N7XVZX3CcHTuULlLQUwiRv7Dl6QJ/zbwLg75xCCSsVN/FOyAZu0LIaAkW06yOKRmVrThCcnuraNwyzcSNRY+1i+gcAJjP8Tc7uaeWhHattAf5+Hii/UL5q/CzTFnMARbXHv3gcNhmvh9Mic5P03W87nDJJsLYoQQLM1wWIQNkrFTlmXsgCYnCyFF6coiiBHD1poTPHAFrki2QTJ2TlcVQu4RvRfjgSskomQbJGPnJFch5B7RezEeuEIiSrZBMnZOchVC7hG9F+OBKySiZBskY+ckVyHkHtF7MR64QiJKtkEydk7ySAih4sxfdO6ZGHTuczlQ6/8rcEWyDZKxz3Hs9L+hGpQaQOqPeqDGA1fgimQbJGOn/OJ2qBBS72i5eQ9wAjcPOAFQsg2SsdNQcDtUCKl3tNy8BziBmwecACjZBsnYaSi4HSqE1Dtabt4DnMDNA04AlGyDZOw0FNwOFULqHS037wFO4OYBJwBKtkEydhoKbocKIfWOlpv3ACdw84ATACXbIBk7DQW3Q4WQekfLzXuAE7h5wAmAkm2QjJ2GgtuhQki9o+XmPcAJ3DzgBEDJNkjGTkPB7fgPsiXZTCMX1NoAAAAASUVORK5CYII=;" parent="1" vertex="1">
          <mxGeometry x="551.57" y="847.5" width="262.86" height="40" as="geometry" />
        </mxCell>
        <mxCell id="BNKGKomZE4ycVB4teLV4-17" value="" style="edgeStyle=orthogonalEdgeStyle;rounded=0;orthogonalLoop=1;jettySize=auto;html=1;" edge="1" parent="1" source="BNKGKomZE4ycVB4teLV4-8" target="BNKGKomZE4ycVB4teLV4-16">
          <mxGeometry relative="1" as="geometry" />
        </mxCell>
        <mxCell id="BNKGKomZE4ycVB4teLV4-34" style="edgeStyle=orthogonalEdgeStyle;rounded=0;orthogonalLoop=1;jettySize=auto;html=1;exitX=0;exitY=0.5;exitDx=0;exitDy=0;entryX=1;entryY=0.5;entryDx=0;entryDy=0;" edge="1" parent="1" source="BNKGKomZE4ycVB4teLV4-8" target="BNKGKomZE4ycVB4teLV4-11">
          <mxGeometry relative="1" as="geometry" />
        </mxCell>
        <mxCell id="BNKGKomZE4ycVB4teLV4-8" value="data" style="shape=parallelogram;html=1;strokeWidth=1;perimeter=parallelogramPerimeter;whiteSpace=wrap;rounded=1;arcSize=12;size=0.23;" vertex="1" parent="1">
          <mxGeometry x="402.25" y="305" width="116" height="40" as="geometry" />
        </mxCell>
        <mxCell id="BNKGKomZE4ycVB4teLV4-10" value="" style="shape=image;verticalLabelPosition=bottom;labelBackgroundColor=#ffffff;verticalAlign=top;aspect=fixed;imageAspect=0;image=data:image/png,iVBORw0KGgoAAAANSUhEUgAAARsAAAA3CAYAAAA8NO7YAAAIS0lEQVR4Ae1d7Y2jMBC9iigmf1IH/ykiFaQCisifkyjgClgphfg0NmM/TEgIeGFg5qQTBmzPh997GTur3T+u//fv3z9u2lVxBrTgQEuce0MZ8/yHncGH/Myu+jKgBQda4twbwZhnE5u9V0OYfQSHMNeKuqMlzqJJWzAZ5tnEZkECzzwEwWFxnjkD28SGePpDN3///vX/n8+ns/96c6AFB1rilMJl0hj67ysbS75egUFAasGBljhxbfdscw1lYmPVXKxmtZBQS5x7CgzaNrExkYkiw8DQQkItcfK67n01sTGxMbExDIww8BvCZGJjQBsBTcsnvpY4f0M4lsxpYmNiM0NsWldXlauq2rWYr7YeP8P3wtvyxOaceWZhMrERTgheqC2vYxIyCSp3uXVJnExsUi6K4OiceWbsmtgUAcm5vjKfEpu6pkrm4m5dH6+Jza+IzdnyPFtsulvtLr6EvjhKwgXBZkQtDDYZojUpNu3TtXXlqroNcWdiM4kV34/wc+m3XZ27XahNW7PKXeqb6zyWwid73bauvvTvbq3rWsYgVVa97QLYG8XZ3TzW61u4Bt+SPfSDRLfmKm8U39I4eNy58jxPbDj5LZXOnWtvBBD4ZCuw4OyIXWUIDa3DiITPRIJnxMTTPVFs4vMXWPH9cAvWuY6roziO4g92SMxIfDqPtyBu6b4c/kZx9r4M7ff22M9eYEh4SIzqlvOA8S2N45x5Zm6/3Ub5xb7wp87TBaCVW2x2wq5yhOaj2LAIEC5AbN5ixfdD3NAHV+0uUN140qKo0QeZJziMy+9XfthNiU3whe0HQRnF96TqrBeYUXwgGl/FMRwXbR48z8xvE5uVgOVEnuk6ImEuAv19EIvwDVUkBucThSEjY+hbu9ZXN0gwbDPZ9YoNV3pHzzNz463YhDKZlL0vjWm/btuoU57TMCDo+lls0tYhfh3uBWUCK5nY+HOfSy9ScVzaRg0rCxlik7aP4du4UNX1vmXxsUh8H0cmtiTcfX6OnGfG1nuxedJBFR/k0YEYHZzB4vOnmF1PJUCzxKbfRkQSvMNKTsbuBgfAN/8zPNK3UUSY0QGx/xBmQUBeZKKBVR5xJb+P/MnG+edhu3bkPM8WG+7or5NJknXmMPA5LqT5ODcvY7FZkLtcYASuQ5E4947rAHlm3H2sbLijv5rYnKqCGawtkGYZCVt3o6+paZ6u9YenFX65APNP2d36+bI4Fwhv0diPl2deVxObokDYG4hl7C8jIZf74edjKjqT4a+3heZ4WZxlcswE/P56vDxzjN+JjVDQcDB2LUOEY5Lw+9i1xCmFFy/FhhfBruHXpFoeLA+GgfUYiGKDv4PYErs+sZZDy6FhYIiBwe8gJuWhB/ZPdwaYJGfPgpY4Jawj6or9KRcJKyLEBy0k1BKnBFiZ2EhYBYE+aCGhljglQMzERsIqCPRBCwm1xCkBYiY2ElZBoA9aSKglTgkQM7GRsAoCfdBCQi1xSoCYiY2EVRDogxYSaolTAsRMbCSsgkAftJBQS5wSIGZiI2EVBPqghYRa4pQAMRMbCasg0ActJNQSpwSImdhIWAWBPmghoZY4JUBsntg8mvgnN673n97vH3e/9r9KoKpc8xiG82j43dXxkJ/7Nc5TVY3LhgwnGN09XFOluUav44O5/eIA59ySMQXG/9zddVZMaGubtmwSlsOe7Di3WetpK+XyTDZmiA0RkYUBSflwD1YLTxru4xwJTRKlFAo9z0Upvf3UQtvv+s7th3MsGVNyPM4loy2bhOWwJzvOvbFQLs8UyWexoaoGFIKqk7GQEFlZbB6uud4d1z+YrkczpzLBEdieKwhz+y2ZG8dge4lNHC+vfRwSrsPeceLcGyPr8kzefxSbkbhk4uNTgM98u3FN/5cOqyg8w5JsLFh9Mn2VFLZg1/sdtk4ZoaEf/aGwpId9vwdtUXieJH1pe1eBiGZzw7q+7u+cA/sv/QT75BtuIVPsaLdv319tWcGhjZqHIeFK7B0mzo3WfdLMyjzTvKvEJhIoMZ32UK6Cc4jXWyokGYZHz5NwhPm5GsIxw36B+NivclHkvCjwu9wWP8e5sQ+2sc/Q/thPsO/zAdtKfw9VYMxVmDNWkYN+6Mc2bekkLIU96XFus9rTVkrlmSysEpvoIgoMtXPxwft+0EsRImGIlRB1zAnei4MXECZsmJDmC2ZwTP6OpkyVQxLF8Zjezdf95/rpJ8nnxvupNg3Ed9GbzRqHIeFK7B0mzs1WfsLQyjzTrB/FxpMTxIKULm0DkmOR7F+IDUwbJppL4q/EJmzfvK3BOHr+obKZ6j/XTx9VLhp4P9Wmgfgu5Xmr1pFIuAZ7R4pzq7WfsrMmzzTnZ7EZEA4I8HjAV9fwfEASIDpG4OdkouMLmocrFD7n4H65jdQvbKO40glzREFE/0kIuXIa+IBzgz9v+yf7420U+0xz5XPj/VT71Tjwa4OmaBIWxJ7oODdY57cmCuaZ7HwWG+rlS6hw2BqrEU9W/lmaRDzvPL6LA4hYE/0xYrD18uCVz3rRRjz38M76Q+WmST/TE11wcEh9bVzzqbKZ7D/MyVs/TWxwdcu0B2u/DnsmNm+WpGCeyco8sXnjz6++8sFyxfKrlmzyLANaSKglzmx5d7kVLTa0R4zbnl3So9eoFhJqiVMCkoWJDWxz/JbLqpq9QKKFhFri3AtHaFeY2KBr1t4zA1pIqCXOPbHEtk1sOBN2HWRACwm1xDlY3J1uTGx2Srx0s1pIqCVOCXgzsZGwCgJ90EJCLXFKgJiJjYRVEOiDFhJqiVMCxExsJKyCQB+0kFBLnBIgZmIjYRUE+qCFhFrilAAxFJv/oVgxfUNIes0AAAAASUVORK5CYII=;" vertex="1" parent="1">
          <mxGeometry x="40.36" y="535" width="257.28" height="50" as="geometry" />
        </mxCell>
        <mxCell id="BNKGKomZE4ycVB4teLV4-27" value="" style="edgeStyle=orthogonalEdgeStyle;rounded=0;orthogonalLoop=1;jettySize=auto;html=1;" edge="1" parent="1" source="BNKGKomZE4ycVB4teLV4-11" target="BNKGKomZE4ycVB4teLV4-18">
          <mxGeometry relative="1" as="geometry" />
        </mxCell>
        <mxCell id="BNKGKomZE4ycVB4teLV4-11" value="Entry Enumeration" style="rounded=0;whiteSpace=wrap;html=1;strokeWidth=1;" vertex="1" parent="1">
          <mxGeometry x="87" y="300" width="164" height="50" as="geometry" />
        </mxCell>
        <mxCell id="BNKGKomZE4ycVB4teLV4-44" value="" style="edgeStyle=orthogonalEdgeStyle;shape=flexArrow;rounded=0;orthogonalLoop=1;jettySize=auto;html=1;" edge="1" parent="1" source="BNKGKomZE4ycVB4teLV4-12" target="BNKGKomZE4ycVB4teLV4-10">
          <mxGeometry relative="1" as="geometry" />
        </mxCell>
        <mxCell id="BNKGKomZE4ycVB4teLV4-12" value="EntryEnumeration.debug.ss" style="shape=cylinder3;whiteSpace=wrap;html=1;boundedLbl=1;backgroundOutline=1;size=15;strokeWidth=1;" vertex="1" parent="1">
          <mxGeometry x="77.01" y="450" width="184" height="50" as="geometry" />
        </mxCell>
        <mxCell id="BNKGKomZE4ycVB4teLV4-26" value="" style="edgeStyle=orthogonalEdgeStyle;rounded=0;orthogonalLoop=1;jettySize=auto;html=1;" edge="1" parent="1" source="BNKGKomZE4ycVB4teLV4-16" target="BNKGKomZE4ycVB4teLV4-25">
          <mxGeometry relative="1" as="geometry" />
        </mxCell>
        <mxCell id="BNKGKomZE4ycVB4teLV4-16" value="remove dirty_query" style="rounded=0;whiteSpace=wrap;html=1;strokeWidth=1;" vertex="1" parent="1">
          <mxGeometry x="401" y="375" width="120" height="60" as="geometry" />
        </mxCell>
        <mxCell id="BNKGKomZE4ycVB4teLV4-28" value="" style="edgeStyle=orthogonalEdgeStyle;rounded=0;orthogonalLoop=1;jettySize=auto;html=1;" edge="1" parent="1" source="BNKGKomZE4ycVB4teLV4-18" target="BNKGKomZE4ycVB4teLV4-12">
          <mxGeometry relative="1" as="geometry" />
        </mxCell>
        <mxCell id="BNKGKomZE4ycVB4teLV4-31" value="" style="edgeStyle=orthogonalEdgeStyle;rounded=0;orthogonalLoop=1;jettySize=auto;html=1;entryX=0;entryY=0.5;entryDx=0;entryDy=0;" edge="1" parent="1" source="BNKGKomZE4ycVB4teLV4-18" target="BNKGKomZE4ycVB4teLV4-16">
          <mxGeometry relative="1" as="geometry">
            <mxPoint x="356.2550000000001" y="404.4000000000001" as="targetPoint" />
          </mxGeometry>
        </mxCell>
        <mxCell id="BNKGKomZE4ycVB4teLV4-18" value="query_set_raw_processed" style="shape=parallelogram;html=1;strokeWidth=1;perimeter=parallelogramPerimeter;whiteSpace=wrap;rounded=1;arcSize=12;size=0.23;" vertex="1" parent="1">
          <mxGeometry x="96.69999999999999" y="384.38" width="144.62" height="41.25" as="geometry" />
        </mxCell>
        <mxCell id="BNKGKomZE4ycVB4teLV4-24" value="&lt;span style=&quot;color: rgb(0 , 0 , 0) ; font-family: &amp;#34;helvetica&amp;#34; ; font-size: 12px ; font-style: normal ; font-weight: 400 ; letter-spacing: normal ; text-align: center ; text-indent: 0px ; text-transform: none ; word-spacing: 0px ; display: inline ; float: none&quot;&gt;step 0: add un-impressed q -&amp;gt; transitive key&lt;/span&gt;" style="text;whiteSpace=wrap;html=1;fillColor=#fff2cc;strokeColor=#d6b656;" vertex="1" parent="1">
          <mxGeometry x="600" y="320" width="160" height="40" as="geometry" />
        </mxCell>
        <mxCell id="BNKGKomZE4ycVB4teLV4-36" value="" style="edgeStyle=orthogonalEdgeStyle;rounded=0;orthogonalLoop=1;jettySize=auto;html=1;" edge="1" parent="1" source="BNKGKomZE4ycVB4teLV4-25" target="BNKGKomZE4ycVB4teLV4-35">
          <mxGeometry relative="1" as="geometry" />
        </mxCell>
        <mxCell id="BNKGKomZE4ycVB4teLV4-25" value="Clicked &amp;gt; 0 &amp;amp;&amp;amp; NonClicked &amp;gt; 0 &amp;amp;&amp;amp; KeywordCount &amp;gt; @group_size" style="rhombus;whiteSpace=wrap;html=1;strokeWidth=1;" vertex="1" parent="1">
          <mxGeometry x="339.5" y="490" width="241.5" height="80" as="geometry" />
        </mxCell>
        <mxCell id="BNKGKomZE4ycVB4teLV4-38" value="" style="edgeStyle=orthogonalEdgeStyle;rounded=0;orthogonalLoop=1;jettySize=auto;html=1;" edge="1" parent="1" source="BNKGKomZE4ycVB4teLV4-35" target="_AsPfFJiuaYgu935RAGV-23">
          <mxGeometry relative="1" as="geometry" />
        </mxCell>
        <mxCell id="BNKGKomZE4ycVB4teLV4-35" value="query_stats" style="shape=parallelogram;html=1;strokeWidth=1;perimeter=parallelogramPerimeter;whiteSpace=wrap;rounded=1;arcSize=12;size=0.23;" vertex="1" parent="1">
          <mxGeometry x="403" y="615" width="116" height="40" as="geometry" />
        </mxCell>
        <mxCell id="BNKGKomZE4ycVB4teLV4-37" value="step 1: filter" style="text;whiteSpace=wrap;html=1;fillColor=#fff2cc;strokeColor=#d6b656;" vertex="1" parent="1">
          <mxGeometry x="600" y="515" width="90" height="30" as="geometry" />
        </mxCell>
        <mxCell id="BNKGKomZE4ycVB4teLV4-41" value="" style="edgeStyle=orthogonalEdgeStyle;rounded=0;orthogonalLoop=1;jettySize=auto;html=1;" edge="1" parent="1" source="BNKGKomZE4ycVB4teLV4-39" target="_AsPfFJiuaYgu935RAGV-25">
          <mxGeometry relative="1" as="geometry" />
        </mxCell>
        <mxCell id="BNKGKomZE4ycVB4teLV4-46" value="" style="edgeStyle=orthogonalEdgeStyle;rounded=0;orthogonalLoop=1;jettySize=auto;html=1;" edge="1" parent="1" source="BNKGKomZE4ycVB4teLV4-39" target="BNKGKomZE4ycVB4teLV4-45">
          <mxGeometry relative="1" as="geometry" />
        </mxCell>
        <mxCell id="BNKGKomZE4ycVB4teLV4-39" value="query_set" style="shape=parallelogram;html=1;strokeWidth=1;perimeter=parallelogramPerimeter;whiteSpace=wrap;rounded=1;arcSize=12;size=0.23;" vertex="1" parent="1">
          <mxGeometry x="392.13" y="762.5" width="137.75" height="40" as="geometry" />
        </mxCell>
        <mxCell id="BNKGKomZE4ycVB4teLV4-43" value="step 2: number on query" style="text;whiteSpace=wrap;html=1;fillColor=#fff2cc;strokeColor=#d6b656;" vertex="1" parent="1">
          <mxGeometry x="600" y="682.5" width="160" height="30" as="geometry" />
        </mxCell>
        <mxCell id="BNKGKomZE4ycVB4teLV4-49" value="" style="edgeStyle=orthogonalEdgeStyle;rounded=0;orthogonalLoop=1;jettySize=auto;html=1;" edge="1" parent="1" source="BNKGKomZE4ycVB4teLV4-45" target="BNKGKomZE4ycVB4teLV4-47">
          <mxGeometry relative="1" as="geometry" />
        </mxCell>
        <mxCell id="BNKGKomZE4ycVB4teLV4-45" value="Grouper(@group_size_str,&lt;br&gt;&amp;nbsp;@num_group_str)" style="rounded=0;whiteSpace=wrap;html=1;strokeWidth=1;" vertex="1" parent="1">
          <mxGeometry x="385.75" y="836.25" width="149" height="62.5" as="geometry" />
        </mxCell>
        <mxCell id="BNKGKomZE4ycVB4teLV4-57" value="" style="edgeStyle=orthogonalEdgeStyle;rounded=0;orthogonalLoop=1;jettySize=auto;html=1;" edge="1" parent="1" source="BNKGKomZE4ycVB4teLV4-47" target="BNKGKomZE4ycVB4teLV4-56">
          <mxGeometry relative="1" as="geometry" />
        </mxCell>
        <mxCell id="BNKGKomZE4ycVB4teLV4-63" value="" style="edgeStyle=orthogonalEdgeStyle;rounded=0;orthogonalLoop=1;jettySize=auto;html=1;" edge="1" parent="1" source="BNKGKomZE4ycVB4teLV4-47" target="BNKGKomZE4ycVB4teLV4-62">
          <mxGeometry relative="1" as="geometry" />
        </mxCell>
        <mxCell id="BNKGKomZE4ycVB4teLV4-47" value="group_data" style="shape=parallelogram;html=1;strokeWidth=1;perimeter=parallelogramPerimeter;whiteSpace=wrap;rounded=1;arcSize=12;size=0.23;" vertex="1" parent="1">
          <mxGeometry x="391.38" y="925" width="137.75" height="40" as="geometry" />
        </mxCell>
        <mxCell id="BNKGKomZE4ycVB4teLV4-48" value="step 3: group data generation" style="text;whiteSpace=wrap;html=1;fillColor=#fff2cc;strokeColor=#d6b656;" vertex="1" parent="1">
          <mxGeometry x="600" y="935" width="180" height="30" as="geometry" />
        </mxCell>
        <mxCell id="BNKGKomZE4ycVB4teLV4-59" value="" style="edgeStyle=orthogonalEdgeStyle;rounded=0;orthogonalLoop=1;jettySize=auto;html=1;" edge="1" parent="1" source="BNKGKomZE4ycVB4teLV4-56" target="BNKGKomZE4ycVB4teLV4-58">
          <mxGeometry relative="1" as="geometry" />
        </mxCell>
        <mxCell id="BNKGKomZE4ycVB4teLV4-56" value="group_data_stats" style="rounded=0;whiteSpace=wrap;html=1;strokeWidth=1;" vertex="1" parent="1">
          <mxGeometry x="109" y="915" width="120" height="60" as="geometry" />
        </mxCell>
        <mxCell id="BNKGKomZE4ycVB4teLV4-61" value="" style="edgeStyle=orthogonalEdgeStyle;rounded=0;orthogonalLoop=1;jettySize=auto;html=1;shape=flexArrow;" edge="1" parent="1" source="BNKGKomZE4ycVB4teLV4-58" target="BNKGKomZE4ycVB4teLV4-60">
          <mxGeometry relative="1" as="geometry" />
        </mxCell>
        <mxCell id="BNKGKomZE4ycVB4teLV4-58" value="groupdata.GroupSamplesPerQuery.STATS.ss" style="shape=cylinder3;whiteSpace=wrap;html=1;boundedLbl=1;backgroundOutline=1;size=15;strokeWidth=1;" vertex="1" parent="1">
          <mxGeometry x="92.5" y="1000" width="153" height="50" as="geometry" />
        </mxCell>
        <mxCell id="BNKGKomZE4ycVB4teLV4-60" value="" style="shape=image;verticalLabelPosition=bottom;labelBackgroundColor=#ffffff;verticalAlign=top;aspect=fixed;imageAspect=0;image=data:image/png,iVBORw0KGgoAAAANSUhEUgAAAMsAAAAsCAYAAADLukwJAAAHuklEQVR4Ae1cy5GsOgztiAiAMAiCPZk4ENadwa0igLtj2YHolWwLZCN/+PXcN2iqumhsY6yjcyzZnpnX379/4Qk/T7HzqC8VnzxyiM/rz58/8Pl8fvUHbXyCnUf9qPjU8V/F8ssnihoBqVhULEu0VDLkyaD45PGhCUcji0YWm6KiYIgUepXFo2JRsahYKjmgYqkE6jfPtpqGyZEk9vkOsYwwNA00TQPDGHdOdQOMAflS5ez5cYCm6cBMVDaB6RrozHRZWnAfGci+GkwmGI2BKcCHbP7Z6z34EDacE863TbfFYRwaaIZR9Pk0DtB1jnvIv6YbYFz48j3sDoklNmoynRVR03BgPvBBIXSdNXQrMDLSA0hAWfFE/WwINsE4dNWCuocMOH4ixNbRG0wmA5040RAOpes+m+NZMXd/Cz4J3ztcYv86HCWOuPYdDGaEaZpgmkYww8AmVwm3e7DaLZZuwEjAjXVkHzblH8DZAiOENZjEsCG+F5WNLrVRpbadA/IWMlg7nJP3YJIjbb5un835vkKC3YFP2veCMFIT5OEJ5h6s9ovFGJuOLbOANWiAcWMwguLTK2ojCcWWeeM6jFBciB/4TAYGCsE2/Lq2NhzbkLwN6TFR7iCDe4cXSw0mFgOORwODcdEGben4ZHKBzTEGufvr8cn7Pk654nsaqxyFQqFfwQ96X+l6QCwY4ta0Y4kasVhsGCYiO4IvApNEY5+P1yqOjJj2Ya4/GQq/+2aO68lADiOxVGAiiGW1CycJWrddY3PJ8bz+cnxKvg+44uyVuGG5xdY3lnfBuvm7WB0SC6q5sxGAiSAAwKVgy+zvDYzXOqvDPPnjyBL1+flgzopE/ffEUsREEMtCEFvnNwkusnnFloSdvl4tFk7qhQM8cvq1nrV/Y+86zlgszv9MXJtnj/GjFqtjYiGy8nVKMHAyCAfvP7ijEadYPsKs4TYSQdDnCuI/KZYSJofFQnZH2EjR+WDZtWKp873LTgwYlqVsSMsnkcU26p/WulHabtvdg9VBsWBK5HbAli1eTmz+XTJyKUMiOOPFfjxYHe6EYBo2jn7L0IMRzFZEqu31WjLw/sOxZzGpFctFNm+IF2DObfhceyhZ63vbLnUUsY7PRakOhpFPuj4Kfxmrw2JxaQfl2aHKrYEs1yTHudkk3Et3YPDZwRFwSdlsRPJ77Gx/nYgp7dnT++j6LbHkMAnqvJPFNAxJfYHNZHvN9Up86n3v/ZzINtZx4/kUZiXrOUs3mPWc5YtY7RDLqvbVkP9H2ZVk+L/ZXjNexaeOxyqWTHpSQ7Tf0EbFomJZfnVCyZAng+KTx4cmRI0sGlmuXeD/YjytWGhm0av782PFQXGQOKBi8X+fL4GjZSoazoHXU/6rx1PszP+PknSt4pPGBmvsf3d5CkhPsTPv8nSt4pPGRsWSx+ZxtSqWvMsRH03D8hg9plbFkne1iiWPz6NqVSx5d39BLDO8+xZer5f9tL2BORhTqT5ofOrmZ8ng7ezfog3zu4fWY/RqezAhSOIzVxfW4ZOz4w2mJV+30GeNyLSdzYoFYWKv7YLLbOg9jleWXwG2JV6V6rfo3i6Wd/+Ctn97gczwRiPbVTDW6Kge29/xU0eGG948v6FvWzCmh5dkGwqlNfD2ArHCYRjdMCKxyyI+WTtmMO2LCcTdt6Jg9rSloSKGIW8kKJfWBd6VeEn98OvNYnlD/+ohpD4v499pWFIZ1Z27Fslwrvvk0/PbC+EtiwUjr8ipZI/3VJTwydqB0YCR2Y5QKsMKqVwqY2YiRlwcSHZ+z5oCgMQhXsa/05NSGdW5681iCV/m7tigEgDlgZD6rCsrkaGulxOtRLEwPE50fcWj1fhIdqAvN+xN2LanLRomtN8/wSTGsgBXqv+JcxZMOQhUCXSLTTiLLPac/FJNhpPvST4u2ovpRQ+GretwzUIpWbKvGyqq8ZHsECc+JKAQNfe0xTgRRRU03ZaZcJ0XZjARQJx3UZW9LdV//VAyBkkC/WliQUxw8bqs23AiDdd1km/vKDslFojXKLiAxsW3IJZdbcO1irPbv6sWs5h3MXilet8e8fnOOYs0IBWLSzE26zokg0Sy2MvX3p8TC44Fib3uTuHOp93YEHf2KtvijF+1oEtgJvGOw1aqZ22/I5bUgBLl+/NRZlHmazUZMn2cqhInBzlXvguD3Pir8RHtkHqWbZNayotyl25VacWnZkHbBL+W95fql4buy/1iyQ5IAlMqi0Z98LaaDAf7Lz4mkkyaEaWyYu+nG1TjI9ohvB59T+tToTooEtumuODWeeEaJcIsy7vEjlwwoO3NzWKJDNi+3+XnS+6ZO/ASHt5ZVE2Gnf1WN0+RDMv5OQuuWWpJVv3ycsNqfEQ7Il/P7tBRNqOybYbw9pzEROd3y8ui/jeml+o3D9iCe8WCxgYnsJTP8nw8PkklAOQBnymtJsOZl2yeRceQ3fwanj/NbGdn+1sOm05vKcjjU2HHjGsUshF3NPliJYoS2bbePDHakOlzsIMYYFbiXameXhFd7xVL9LKfvs2T4adH9/PvV3zyPlCx5PF5VK2KJe/uRSz4RT+KgXIgz4HvnLPkRfuVWiSC/qQRUHzS2GAN4qNiyWP0mFoVS97VKpY8Po+qVbHk3Y34/AfIOPm8WYNSmwAAAABJRU5ErkJggg==;" vertex="1" parent="1">
          <mxGeometry x="76.46" y="1090" width="184.55" height="40" as="geometry" />
        </mxCell>
        <mxCell id="BNKGKomZE4ycVB4teLV4-65" value="" style="edgeStyle=orthogonalEdgeStyle;rounded=0;orthogonalLoop=1;jettySize=auto;html=1;exitX=0.5;exitY=1;exitDx=0;exitDy=0;" edge="1" parent="1" source="BNKGKomZE4ycVB4teLV4-62" target="BNKGKomZE4ycVB4teLV4-64">
          <mxGeometry relative="1" as="geometry" />
        </mxCell>
        <mxCell id="BNKGKomZE4ycVB4teLV4-67" value="" style="edgeStyle=orthogonalEdgeStyle;rounded=0;orthogonalLoop=1;jettySize=auto;html=1;" edge="1" parent="1" source="BNKGKomZE4ycVB4teLV4-62" target="BNKGKomZE4ycVB4teLV4-66">
          <mxGeometry relative="1" as="geometry" />
        </mxCell>
        <mxCell id="BNKGKomZE4ycVB4teLV4-62" value="SamplerProc" style="rounded=0;whiteSpace=wrap;html=1;strokeWidth=1;" vertex="1" parent="1">
          <mxGeometry x="401.01" y="1010" width="120" height="60" as="geometry" />
        </mxCell>
        <mxCell id="BNKGKomZE4ycVB4teLV4-74" value="" style="edgeStyle=orthogonalEdgeStyle;rounded=0;orthogonalLoop=1;jettySize=auto;html=1;" edge="1" parent="1" source="BNKGKomZE4ycVB4teLV4-64" target="BNKGKomZE4ycVB4teLV4-72">
          <mxGeometry relative="1" as="geometry" />
        </mxCell>
        <mxCell id="BNKGKomZE4ycVB4teLV4-64" value="dev.tsv" style="shape=cylinder3;whiteSpace=wrap;html=1;boundedLbl=1;backgroundOutline=1;size=15;strokeWidth=1;" vertex="1" parent="1">
          <mxGeometry x="480" y="1130" width="110" height="50" as="geometry" />
        </mxCell>
        <mxCell id="BNKGKomZE4ycVB4teLV4-71" style="edgeStyle=orthogonalEdgeStyle;rounded=0;orthogonalLoop=1;jettySize=auto;html=1;exitX=0;exitY=0;exitDx=0;exitDy=30;exitPerimeter=0;entryX=1;entryY=0.5;entryDx=0;entryDy=0;shape=flexArrow;" edge="1" parent="1" source="BNKGKomZE4ycVB4teLV4-66" target="BNKGKomZE4ycVB4teLV4-70">
          <mxGeometry relative="1" as="geometry" />
        </mxCell>
        <mxCell id="BNKGKomZE4ycVB4teLV4-73" style="edgeStyle=orthogonalEdgeStyle;rounded=0;orthogonalLoop=1;jettySize=auto;html=1;exitX=0.5;exitY=1;exitDx=0;exitDy=0;exitPerimeter=0;entryX=0.5;entryY=0;entryDx=0;entryDy=0;" edge="1" parent="1" source="BNKGKomZE4ycVB4teLV4-66" target="BNKGKomZE4ycVB4teLV4-72">
          <mxGeometry relative="1" as="geometry" />
        </mxCell>
        <mxCell id="BNKGKomZE4ycVB4teLV4-66" value="train.tsv" style="shape=cylinder3;whiteSpace=wrap;html=1;boundedLbl=1;backgroundOutline=1;size=15;strokeWidth=1;" vertex="1" parent="1">
          <mxGeometry x="339.5" y="1130" width="110" height="50" as="geometry" />
        </mxCell>
        <mxCell id="BNKGKomZE4ycVB4teLV4-69" value="step4: build trainset and validset based on query" style="text;whiteSpace=wrap;html=1;fillColor=#fff2cc;strokeColor=#d6b656;" vertex="1" parent="1">
          <mxGeometry x="600" y="1030" width="210" height="40" as="geometry" />
        </mxCell>
        <mxCell id="BNKGKomZE4ycVB4teLV4-70" value="" style="shape=image;verticalLabelPosition=bottom;labelBackgroundColor=#ffffff;verticalAlign=top;aspect=fixed;imageAspect=0;image=data:image/png,iVBORw0KGgoAAAANSUhEUgAAAXAAAAAzCAYAAACOolNJAAANQUlEQVR4Ae1d243jOgzdilyMf6YO/6eIVJAKUkR+FkgBt4AFUoguKIny0YOK/Bw74QADy7JEUeeQx7Ls3fljTvrz33//ndRzdXsOAsr3HNSO2Ue5XM4LY/hnuanfscAT+J3RddS9EVC+90Z8u/GUy+XYMoYq4MuxVAs7IMABu8NQOsTGCCiXywFmDFXAl2OpFnZAgAN2h6F0iI0RUC6XA8wY/nm9XuZsv3///jX0eza/1d95saZ8z8PtiPGmXK7HJYm4CvgJb2BHTMwtfdKkXy/pt+SpxbZyuR6XtI5XAVcBP/yTjCb9eknfIrJbtlEu1+NSBVzF+/DiTWKiSb9e0m8pzi22lcv1uFQBVwFXAdcY2DUGVMBVwHVF9mWio0m/XtK3rJK3bKNcrselX4HfzdB1pgu/vRnuz9XuyvehM91wL9t7Xk3f9eb6nDYpKQie18H0OI/revOoB/XTXPvO9Nl4T3O/Xs3zywS3jtU0rslWzreL2eHubdk4KuE/fay1fX9FMa5xknMpYSJwF+EptEnzLeojjXe+XI0EnET7+aRJ9KbrBnNPQZh5vpeA23E6d/OheTzvXsylm8fM+ZQTXAgKLyxBaLIxn+Y+9AXhbwzMzN5n9suTHgXcYS8uEn4boxbx+KI4ybkUckfiLcKzMd6jPsJ4J+QgEXAPRjTZRoAksF8vs4uAS+DfB9PNWOGXRbqGhRAUFVzcGHP71Xz5vGt50o8C/lx5wTGd+zd4R/k0l++5/d749jY+1++fczlxbhGejf5FfSaOFzCa26/RxzBOe/tEwP0KnLY8+vGxP6xk7dZEbwa/TRAJcyKgNqn8yjdq93qZcZujN8NAq+TlWyhyEo+J/krFPDmP5tn7JxDfZhjcU8mQbAfZcS1WArlp4Fg7bruqv97ttkvYugLMVxeRGcFxJB/ypPe8XmkLrjPpE06JyzwOexvnV+S0EseRTXrS4+2yJEboyVWOcY2TnEsBkxfVU975fBm8JnFO3R33dL2Hp+yIJ85j7mO3aoXx0jYnyNVIwBkoFG+3f9eFYCVwqB0lzChevkxAWyBjgKLECQlCe9O8XbOSgBcF0CW63ZtOBDsSdOvXYO5MMCe1n2/Y27bnvL2E88Qy3EEhKBxe3JfbCP1OLrhri3+e9I5XG7Mp71UuGf8R96Y45rj1oo154OII9t+5rX2PlMb4OG6E0RfFSc6lgMmLFpQ+TwKmL8OaRKJN75aeXsjtTdy2K+Qx4Eu6U3xfBW3OkquRgFtRTkQOg9sFHEweJkwiPdBqyCYTJdcoyijgmT2wEQX0GwFLg8DaLe7b+5UavexK5obnrj++yPVPIWmfF9izvueCEM0D52dtdaanVcGTX64Cnm/mHNn9srYp36/Ag+Mj3GDt6ndctcWLEoE74EiK4yxuUQSSGMnagv0W8Qg3hA+Nk5xLKQfo5jeYHlbho0iP+oKYinn8oRxkAs5g8AuhLBgxcH15uFNikJDRsTdXCmhYFe0h4HxXtgSjuGFyYZnawHk+T3/nhzYsoLYt3f1p7zU8uglBGAUOrR78S0t67LOrOaEfzkHL9a9QLEfjNorIJYu7wF0tjnObwFsSI1nbKAagH/IatfnsOGkVcIcjr6bTm29FwEF7OGebvgQ6IQcFAWdh8wlhJ0Vlt2J0j44jeA7kPuxBkVjTHRNXRCjgvLpw9kjMaNU72guAY3AXynkQ+Jelha9Qgi9+Liyc0dhBBHieV3MtrdrJF09034+iwTc+2te2X8DQVzD0+JcGhZ3L04z7rj6hw42At1b0iLGQ8w0JzS/K+QlM4lLkjrcDK3Fcy4NEwOsxzgL+vXGSc1nGxOan38OOtqw8F7R4clso47ZujL3bXrF5HOVhebwz5mpZwP3KmlfRBF70bTV+Ix6SxQmOFfTkpVIk4DbZ+BGXXgSt+R24f+QK34G7mwPffEgQ3CeSvn6Iv1AZXzzR9sngvk1Pk5MFuCcbvH1Cc3dBER7ZyQdaCUDgMDZu35ZXFvD+oLRysOOpmOdJHwu4Sz5+B0OYQswylyJ3yaKFV+pJHIt5UIgR+jTUxUIa4xonOZcyJoPNM3pavdp/qxJtoQSO4YWy5a7APeThJ+WqF/DzCUQeBOU5sGjyCw9c1c0v8x2c97HLY8+3r/ZS7Fr5Tvvl58pdjsm+8bYel/v6/du4lcb/eAEvTXppnVuJTd/2WTruN/dfK+mVu98XvbW4/OZ84LmrgE/couB98+xl6UQ7TIAe2wRljaRX7tqw3jom1+Byax/PYl8FXIW3/H/UHAwXTfpjiO8awqZcrselFXAGVI/uz7QpDoqDxoDGwBliQAXc/23NM5ClPqqoaAxoDGAM2L+JSSp+th+exNn8Vn/nIaB8z8PtiL2Uy3VYCX+Vfh1z+1rRINgX798eTfn+bQbWG1+5XAdLFfB1cFQrOyCgSb8DyDsNoVyuA7QK+Do4qpUdENCk3wHknYZQLtcB+jwC/riYrruYB8xbCoJ/t5/w/wfbf8p8wV7eQGbvYS7BvlR2fdX+FvgAsUIx55v8+DG3f9zhn7n9dKZDvmfxXLf7uNB/oeB+f8LgEiZpveSv993bHaeQ9uccSOslu4yNMTZuf27GwZX2n243zgPuP45XK+Vc+taz+DLG2H5zODla3xpq+bUTCDgn5QUE1k2kFAQuqOJgsgkXMkKy1xLQPgmC0Ds/1P6I93z88+BMa3K+ibNRuIiHUVCX8Fyx++9mbmE9gO1a4gfbk+agvw/zYLv/buYnxNhSu4wi2elMt0DAY3+d/yGteJjGY87lUr44BhHjVuyO1LcRQN/sBALOE0IyXF0WBFHgcz86UnCMie6upPbwXCirff8EtAU+yFe5nPFtyA/Hq71xFNUEfSW7eF4rv7NLtjCuarZygZD9neJju10a73K7mZ+ZAl7y93FJc6rMW6k255JbIY6NWNDqG7gnX92NHG0J5cP1ZRzajp8l4AkZCEG6eogTeV6gqP0Et0X4I5rlcp70lJQ/5na7wMoy7YuJm/hbFfN3dqfYSoS26q9/pA+ChP7XyhV/aeFB9ug4R8CL/voVc7aVlOJfPs+55HY4xzaMR8H2NkIcoq1y+Xh9GYe240cJeGmVwDBkREXJS63KBGO92kchysvL8GGm5GOe9MSZ2/cMepd1R17beHacv7Obb4G8f4dS99fiR/OJJoP+18qSv/CUMEvAJbsINPk1bTWec8n2cI5tfGW5rQLOYB7pmBJrwl9oCV4G4kJNKGQkR4JNzdC+UFb79S2URfgEqsRCnvTE04+5PWjPWBIQ5LKRZxsLNbtu9Tnut69l10+dcAzzQf9r5bK/UdzPEvCy3ZSk/Ak3bRGf51zydZwj1eF5uRzN0XbhLZVye7R5vL6MQ9vxo1bg9hExvPxBAGAVEqqRXKrEc6FMCaD2ZawW4ROIEQt50hNPXrit6PFTAZpALht5ZgGnzzUyu6VYWsMu+owvCNH/WrmEA7V3K2j+asYe7TZKzRbjSG1KdmNf7ewvnYkeHPImUU3OJV9Gv6xl+HgBr0E5WTiMogxtpPw+XF/Goe34WQJu8w3ftBMIbrUUP5amgZGeS8S7xBrf5Kv9+Ma3BB/Csv6TJz3xNK68KXFjbsgecpme47W0LNhNEn70OO2PIohlye4DPpElW9xuod3Rwfl74P4zzTK+lGK1JyB0YCznXPI1nC/V4blQjhYO1GYCdofryzi0HT9OwGnaNtCilQcTiqBgMFA9nktl11/tb4EPclMu50lPfsTc0qN8LOLoayvPst1H+m8MOv4UEMeplQV/rZCMq+VxNVuzVb4x2FlmOHihnfMSM3xnjzdo8qvkb5m7tDbnklvgfO1M3q/AbTPadkr369GWVLarvgP1ZRzajicS8HxCchAkbUNyxMkTt5IIxvq4RzhT+7B6DKiMhSZ8xuZSqZlvyYCtRz6lctWAcFGyhfVC12o19pfKVQPCRckW1gtdV6hu5xL9kcqSQ1J7rD9aX8mfcv13CHh57kktkiqVky6TTiWbWD/JYNIY7UjlpMukU8km1k8yOLlxe9LXTKO/UrnWX7om2cJ6qW+tHvtL5Vp/6ZpkC+ulvsvr27lEf6Sy5I/UHuuP1lfyp1yvAh5wQVKlcmg8oyDZxPoZZkMXtCOVQ+MZBckm1s8wO6FLe9LXjKK/UrnWX7om2cJ6qW+tHvtL5Vp/6ZpkC+ulvsvr27lEf6Sy5I/UHuuP1lfyp1yvAl7GRWsPiEB70h/QeXUpQkC5jOCYfaICPhs67bg3Apr0eyO+3XjK5TrYBgGnwtl+OQjO5rf6Oy/WlO95uB0x3pTLdbn8s879YH8rFJz68z0IKN+fw7VyuZxLxlAFfDmWamEHBDhgdxhKh9gYAeVyOcCMoQr4cizVwg4IcMDuMJQOsTECyuVygBlDFfDlWKqFHRDggN1hKB1iYwSUy+UAM4Yq4MuxVAs7IMABu8NQOsTGCCiXywFmDFXAl2OpFnZAgAN2h6F0iI0RUC6XA8wYqoAvx1It7IAAB+wOQ+kQGyOgXC4HmDH8H9gVvR2GH1e8AAAAAElFTkSuQmCC;" vertex="1" parent="1">
          <mxGeometry x="9.010000000000016" y="1140" width="288.63" height="40" as="geometry" />
        </mxCell>
        <mxCell id="BNKGKomZE4ycVB4teLV4-76" value="" style="edgeStyle=orthogonalEdgeStyle;rounded=0;orthogonalLoop=1;jettySize=auto;html=1;exitX=0;exitY=0.5;exitDx=0;exitDy=0;" edge="1" parent="1" source="BNKGKomZE4ycVB4teLV4-72" target="BNKGKomZE4ycVB4teLV4-75">
          <mxGeometry relative="1" as="geometry">
            <mxPoint x="400" y="1250" as="sourcePoint" />
          </mxGeometry>
        </mxCell>
        <mxCell id="BNKGKomZE4ycVB4teLV4-72" value="stats" style="rounded=0;whiteSpace=wrap;html=1;strokeWidth=1;" vertex="1" parent="1">
          <mxGeometry x="409" y="1220" width="120" height="60" as="geometry" />
        </mxCell>
        <mxCell id="BNKGKomZE4ycVB4teLV4-78" value="" style="edgeStyle=orthogonalEdgeStyle;rounded=0;orthogonalLoop=1;jettySize=auto;html=1;shape=flexArrow;" edge="1" parent="1" source="BNKGKomZE4ycVB4teLV4-75" target="BNKGKomZE4ycVB4teLV4-77">
          <mxGeometry relative="1" as="geometry" />
        </mxCell>
        <UserObject label="stats.tsv" id="BNKGKomZE4ycVB4teLV4-75">
          <mxCell style="shape=cylinder3;whiteSpace=wrap;html=1;boundedLbl=1;backgroundOutline=1;size=15;strokeWidth=1;" vertex="1" parent="1">
            <mxGeometry x="112.5" y="1225" width="115" height="50" as="geometry" />
          </mxCell>
        </UserObject>
        <mxCell id="BNKGKomZE4ycVB4teLV4-77" value="" style="shape=image;verticalLabelPosition=bottom;labelBackgroundColor=#ffffff;verticalAlign=top;aspect=fixed;imageAspect=0;image=data:image/png,iVBORw0KGgoAAAANSUhEUgAAASwAAAA8CAYAAADc3IdaAAANDElEQVR4Ae1dS27jMAydE/kwBoqew7sscghvu8kJcoHsshnABxig2wI5Q9YcUBIlipKcn5JaMQsUtmWZlh8fHyk5Tf8AAPz79w83+vMAAorhA+BlLlU8M6CssEny4A9iIBtXiMvDj6wYPgxhZEDxjOBY7YHkgQpWJSpIYCuZXa0ZxXO1ro8eXPJABSuC5/4DCez9lvRKREDxVB7kePDn79+/gL+n00l/78RAMazLHcWzLp6txzYmL/pVwbpTpDgJNMDqBpjiWRdPztUW93mtqYKlgrW4yloFSwWLC6sKVgWR4oBqgNUNMMWzLp6cqy3uq2CpYC2uquKBpIKlgsX5oIKlgqWCVZkDPMB0v67g3iZY0wh918M41R3EOzm1VBFM4wB910FnfnsYxumlQiHvP+7b8GEWz2mEoScsO+j6EaZXiM4N/G8V76XH4hMEa4L90ENfNSCfYfM5AZsLsP2AwdXDsJ9gmiaY9k68hv1LRAv9Ye4/7s3992Nt/3As6/oqwdOIRgf9YJ8F8RzxuRYkWC3jvUrBGvuuumDVt8mDrN5+KcAGWdHsByMiT69WXYDH959gv39WhTdBTV8leBrcBti/QqDkPa6psBrHu3nBCqVtD8OAlQFNCZGYmLltad4PWJZbslKbLdVz/VAgJhhN5nfXu4rMVx9ot0di5mzWE5jaDpIBNo2IUS7A9jB0HRghkeIljlNMTnByfQaD4QADVnGsYjP37UfAampuyhTZxiqQKmMxBrqfEVgKyhGXCMj/WC3W95XE83SyuBluJEsTJa4R1ns/leyxKqNKt8ME66pdEqW9fLYTnOicuy+/3nL1BIR7qeKLrlkg3rXjoba9+SkhEdNk48mSnwnWRITx/ZwQRRUWToOcwLB+1rEikM35AfamPwoaBaENhLrTzOeIngywMoFtEJlnuigOGUzMNaySNceEZ8CrfH8KwM6LFAYTJpuLIur8iAKJgWnuwXjx1AoLq54pCE8sXHmueZGLxmu5lYzfPZuZcuKzOeEymJhzLmEXuNo63rUFpra9WcFKwOcOO6GADdCzKstOO0Kw2MEW+lHAYRU12emJJb7N2GmVxoJTluoLOs4K1gMVVhETgx9Vuyi+VEWQEFnxSnzIsErPMd9J+/zYBbX1N93PCZ2rsmolF4lnFABeuIJQ5znJsDGCJ14ecV7zfYMVw4SdK/llrqJtAe8IX8aVpbTfLVgWfMr8nBDMwZR9jSiJoDLEcQu0piSfZsrp2OZSwMuNIwkwGdxEAi4AfB/Ps+OU5K4yZH1oHKYvVhE4DaTpoelHYhJXlalthrO0z4/lM0XHzAY96wPbBE9pi93bPk+Ok5yfJLBM7I0NXjmxc1yAWb8UO+6XdvEmLi11OytYNnAQfKyAUFyw+rHONPtmjQnLZjaVIAe7gCn3o+BhUz9vx1Vc+xHs63cXBBSEkrQLOs4FGOEm3xL6KsQFnT2OcY59YKcoBhMuIPT8LqD6ngeMxU6+pTRrVe6+1r/kRx64VNWKMfnrnA+j47q+SvDcjzC4t534htBUNBc5eatgsemi56QQOt+e52qreC9VqGhc84J1OpmPKNjpGS7IslKafRamH8ewgExVlVk0H2Eq9DMZyi3Y8nWIsMhvF93pLZrv/6rP3JAI3LhNAsxc76bF9Lxmaz/mQI6wgWcTAr7coMSA57OY5ATLL3rTFCkkBfuqnabbvUsEVqRo4ZyC7OKYIoGiQA4iWdNXCZ547+gzWEP4XGCBa9F0Gf1hxs+qKH5M+/5zc+xFBJ2jRXffJ+aqTe7hhZTxpXtLnCy6s7e1RQ6Y+wZ87fjDcU28yfdL3V4UrKUOfKnjSgKsIHhEMlrcrfM8dadjdcZEonnf9lo8q41ViFI1uwUeqP3beKGCVZlILw8wNn6bvVnlwM61Ghgvx1MF6yUfZr6XjypYlYP65QHmxh/WyW7LWPcS51XXvRxPFSwVrFeRewn3eXmAVRbcJWDIx6B4vlcC4r69Zz9bYRFJdGu/MlpxUByUA8vggAqW+x57JeQyCKl+UD/McYC+zx23+l9zuHzfuU9g33m5XiYQUDwFICs+RJHiPypYHI079zXA7gSucJniWQBmhc0qWE9wugZYXVAVz7p4tmxNBesJ3tMAqwuq4lkXz5at3SFYR9h2n7D7afmxnzv21QXYceu/E+2TEeO4pT8D6iC0/8DuM7Rvj8EX+f5g/rEvYqo/v4CA8e0WmJvsIDLtP7tPz4OuS68x5z93EElHxg4U+IQ3VsF6AgfWJVg8gbH9nx3sPMtZOxzhSO0/O/gkYhf7q2A9gaJXmHSJZbuFLfnIXFVqB8CEwxNQfBPkQAedF6ySnZgrsjhSwYpRrXK0KsFC0fEkLJEWyZmrypGcaSYGiPuvCs8qDKxppOSjtP24zfnYjgWrq+0u5oo9I+xc4NN1gmUyoS3jP3e7eErIztky0CpnpLRY4jFS14RzibbWFWBcXAT5vHMK7ciLiCh0Qdx/XXgSBkvZxr4Io5LtNu7pSzfDEgAAoEagn4UYWVs5OyR88txVU0K8KJR6dp7KDdI+YHq1axWCiPOlYoDgXfZWF2AsaeX0B/3PCezXOnKdDY3i/qvDc1GBkIpGXmj4oPEa0gWW0K4SLCdw7muYJEUuV1jJTdhgGFFJWW3G5A95hO2Kqit026oCTPAjTk4263Kx4rS2i6tEbDyT778qPCOAlnDAY5mPp9Ru+1CSwuTk/S+44nrGywKiT8ynayosYQBAClZuDQKrPztQ2vJHfff9NQVY4l9fXbPMOuPwQMhy/zXhOQPVL50qCVOp3Q7T+hX7hDfCvqiJCpjYTplP1u7lCssI1NyUMC7fPapG6Law/cwLmu/3hjurCjCxPkmZ1VRPsp5HXx+P7BU5ktVVWF7oUkKsCs/08X+5JRaUMJhSO03peOXsrkqKH2wXdkp8ciauECy7NkXqOL/o3rFFVFve5xdVw2O/497aAgyzIvGD/B21uSxrpgZIWpZ1SdOK/dc2xV5cQAhB8eOT7Xgcqinyq++OO9cIlumW8onsXCdY1Fu3VyGwNsG6CpQHOimeD4D3ZpeqYD3BoRpgdUFVPOvi2bI1FawneE8DrC6oimddPFu2poL1BO9pgNUFVfGsi2fL1lSwnuA9DbC6oCqedfFs2VoiWNhwPp/19wEMKMAUxzo8Ujzr4PgufESNol/zjaPv8mC/9RwaYHUDTPGsi+dvxUWt+/IKUQXrgcqKHKIBVjfAFM+6eBJPW92qYFUQKe58DbC6AaZ41sWTc7XFfRUsFaxFr1mqYKlgcWF9jmB9f8FH9wFf3+sDu/kAO2z8n9p8fH3HYmbObeCQEfnvrw/oPr7g250zx/7PNdg1Wfvf8PUR/rRjcwi8aR7PDFY8AF+6X/Jfqf18BulXM95c/6xfz3C+oT3mDPGBced85npl/y9hDOABNisVnhiHEECX2tsOMO5vvu8EZbOBTRcTyOKBfbtIsA6bDrjwmH4mkdH13P4BDiRSUZ+z/7qeS7jr+TmOlvxXaidb0q+l/rEvg2bc2k73tVsUMJk0uWJlFt35DWNjSpA8Hk0LFooFq5JS0UE+kOCE50dibb7ktWmFLQkojy2n4ns0jeeSqiszlhjbEMP59pxfcz46l3hza3uEV35MM4KFF1BZ1kG3OcD5jG0fsNl8QOeIi6T2f61v+iCRbT87JXT7XzNTjWigIRACoO20tR1gmEFJaNBvUpwybUhK9HtETpeJHX8oS0qBksfG3ziF8DzSCqtuDGT8VxKyrF8pDqWdEm9ubSf7dipJvOEYzAgWXowDIwLTcZeUadYg7yv3SfBoTisDgQ20cfFqW7DOVnic0CRTOsMH7jtGyEiwuD8ZF6K1DytqREoUL5P4mFghr5rHc1F8Rl9w/5GfZPslv8r+M7xBXuT4VGo3eLH7C/zuECwuYCRAVGXROUbSrOhRPwLsfbZNB5gQnUtTwqhCEtfyrIh2EmFylTq1+/5G1AI/msZTBJt/xl9rzwiNGUvcftmvcf+4uj6D543gxMV2wgWvE4mLsHtMsNCwV2yuiipYBHBL24ioSB4xPbMVN2Vo9DElKrZla2D07J6oREi3vaZdBatmMhdC4/3B26/xK+9v3yRGicfxpsSnUjvxBc+n1b3F4THBwoERQY14UWbEB8rt4035uZrOWIatpgOM+/NsM2VExGRKyDAX2ZTIZ7Kv5wLrz+91OLCPSsT8aBpPLwjsuX+1LRYa76Ob/SrscF9y3tzabrDhhU+K2wXBsqQNawsxmc5nNO6y68cGNtGCrQpWIEQK/FLPYXZLX6LQ+AVRefBFgoX9QtUVsiVvp0otXv/Ae4f+uoZVlycl/5XanW+oKPH+TvuXeHNre1zFE+/C9qJg1QUs3Phd7WpFUNfHimddPFuPOxUsnzXqEEMDrA6OFFiKZ108CddWtypYKljxn99UxuPRwFDBUsHiHOKC9R/kWqX/EJXNMgAAAABJRU5ErkJggg==;" vertex="1" parent="1">
          <mxGeometry x="20" y="1305" width="300" height="60" as="geometry" />
        </mxCell>
      </root>
    </mxGraphModel>
  </diagram>
</mxfile>
